<mxfile host="app.diagrams.net" agent="Mozilla/5.0 (Windows NT 10.0; Win64; x64) AppleWebKit/537.36 (KHTML, like Gecko) Chrome/133.0.0.0 Safari/537.36" version="26.1.0">
  <diagram name="Página-1" id="hk9uuayvQg8WLJiO81se">
    <mxGraphModel grid="1" page="1" gridSize="10" guides="1" tooltips="1" connect="1" arrows="1" fold="1" pageScale="1" pageWidth="827" pageHeight="1169" math="0" shadow="0">
      <root>
        <mxCell id="0" />
        <mxCell id="1" parent="0" />
        <mxCell id="NeJSfB6n3JprFffbnvdz-12" style="edgeStyle=orthogonalEdgeStyle;rounded=0;orthogonalLoop=1;jettySize=auto;html=1;" edge="1" parent="1" source="NeJSfB6n3JprFffbnvdz-3" target="NeJSfB6n3JprFffbnvdz-4">
          <mxGeometry relative="1" as="geometry" />
        </mxCell>
        <mxCell id="NeJSfB6n3JprFffbnvdz-3" value="Senha" style="html=1;strokeWidth=2;shape=manualInput;whiteSpace=wrap;rounded=1;size=26;arcSize=11;" vertex="1" parent="1">
          <mxGeometry x="204" y="190" width="100" height="60" as="geometry" />
        </mxCell>
        <mxCell id="NeJSfB6n3JprFffbnvdz-7" style="edgeStyle=orthogonalEdgeStyle;rounded=0;orthogonalLoop=1;jettySize=auto;html=1;" edge="1" parent="1" source="NeJSfB6n3JprFffbnvdz-4" target="NeJSfB6n3JprFffbnvdz-6">
          <mxGeometry relative="1" as="geometry" />
        </mxCell>
        <mxCell id="NeJSfB6n3JprFffbnvdz-11" value="&lt;b&gt;&lt;font style=&quot;font-size: 12px;&quot;&gt;SIM&lt;/font&gt;&lt;/b&gt;" style="edgeLabel;html=1;align=center;verticalAlign=middle;resizable=0;points=[];" connectable="0" vertex="1" parent="NeJSfB6n3JprFffbnvdz-7">
          <mxGeometry x="0.0228" relative="1" as="geometry">
            <mxPoint as="offset" />
          </mxGeometry>
        </mxCell>
        <mxCell id="NeJSfB6n3JprFffbnvdz-4" value="Senha = 1234" style="strokeWidth=2;html=1;shape=mxgraph.flowchart.decision;whiteSpace=wrap;" vertex="1" parent="1">
          <mxGeometry x="388" y="170" width="100" height="100" as="geometry" />
        </mxCell>
        <mxCell id="NeJSfB6n3JprFffbnvdz-10" style="edgeStyle=orthogonalEdgeStyle;rounded=0;orthogonalLoop=1;jettySize=auto;html=1;" edge="1" parent="1" source="NeJSfB6n3JprFffbnvdz-6" target="NeJSfB6n3JprFffbnvdz-9">
          <mxGeometry relative="1" as="geometry" />
        </mxCell>
        <mxCell id="NeJSfB6n3JprFffbnvdz-6" value="Acesso&amp;nbsp;&lt;br&gt;Permitido" style="shape=parallelogram;perimeter=parallelogramPerimeter;whiteSpace=wrap;html=1;dashed=0;" vertex="1" parent="1">
          <mxGeometry x="524" y="195" width="100" height="50" as="geometry" />
        </mxCell>
        <mxCell id="NeJSfB6n3JprFffbnvdz-9" value="Fim" style="html=1;dashed=0;whiteSpace=wrap;shape=mxgraph.dfd.start" vertex="1" parent="1">
          <mxGeometry x="534" y="300" width="80" height="30" as="geometry" />
        </mxCell>
        <mxCell id="NeJSfB6n3JprFffbnvdz-13" style="edgeStyle=orthogonalEdgeStyle;rounded=0;orthogonalLoop=1;jettySize=auto;html=1;" edge="1" parent="1" source="NeJSfB6n3JprFffbnvdz-4" target="NeJSfB6n3JprFffbnvdz-3">
          <mxGeometry relative="1" as="geometry">
            <Array as="points">
              <mxPoint x="434" y="290" />
              <mxPoint x="254" y="290" />
            </Array>
          </mxGeometry>
        </mxCell>
        <mxCell id="NeJSfB6n3JprFffbnvdz-18" value="&lt;b&gt;&lt;font style=&quot;font-size: 12px;&quot;&gt;NÃO&lt;/font&gt;&lt;/b&gt;" style="edgeLabel;html=1;align=center;verticalAlign=middle;resizable=0;points=[];" connectable="0" vertex="1" parent="NeJSfB6n3JprFffbnvdz-13">
          <mxGeometry x="-0.0674" y="-2" relative="1" as="geometry">
            <mxPoint as="offset" />
          </mxGeometry>
        </mxCell>
        <mxCell id="NeJSfB6n3JprFffbnvdz-16" value="Inicio" style="html=1;dashed=0;whiteSpace=wrap;shape=mxgraph.dfd.start" vertex="1" parent="1">
          <mxGeometry x="214" y="120" width="80" height="30" as="geometry" />
        </mxCell>
        <mxCell id="NeJSfB6n3JprFffbnvdz-17" style="edgeStyle=orthogonalEdgeStyle;rounded=0;orthogonalLoop=1;jettySize=auto;html=1;entryX=0.503;entryY=0.242;entryDx=0;entryDy=0;entryPerimeter=0;" edge="1" parent="1" source="NeJSfB6n3JprFffbnvdz-16" target="NeJSfB6n3JprFffbnvdz-3">
          <mxGeometry relative="1" as="geometry" />
        </mxCell>
      </root>
    </mxGraphModel>
  </diagram>
</mxfile>
